<svg height="512pt" viewBox="0 0 512 511" width="512pt" xmlns="http://www.w3.org/2000/svg"><path d="m512 191.46875v118.933594h-39.976562v-48.398438l-109.816407 111.773438-46.457031-46.460938-99.945312 101.945313-53.46875-53.46875-133.785157 136.496093-28.550781-27.984374 162.050781-165.335938 53.472657 53.472656 99.945312-101.941406 46.488281 46.488281 84.042969-85.542969h-53.933594v-39.976562zm-89.949219 260.855469c0 11.019531-8.96875 19.988281-19.988281 19.988281h-278.21875l-35.273438 35.917969c6.722657 2.613281 14.019532 4.058593 21.652344 4.058593h291.839844c33.0625 0 59.964844-26.898437 59.964844-59.964843v-123.105469l-39.976563 40.691406zm-371.796875-209.882813v133.636719l39.980469-40.707031v-129.402344l165.90625-151.355469 106.191406 96.875h59.316407l-165.507813-150.988281-256.1132812 233.648438 26.9453122 29.535156zm0 0"/></svg>